<svg xmlns="http://www.w3.org/2000/svg" width="518.961" height="320.931" viewBox="0 0 518.961 320.931">
  <g id="logo" transform="translate(-78.319 157.606)">
    <g id="g5747" transform="translate(78.319 -157.606)">
      <g id="g7254" transform="translate(0 0)">
        <g id="g7302">
          <path id="path7224" d="M295.808,312.6a1.4,1.4,0,0,0-1.188,1.783s1,3.263,1.99,7.08a67.719,67.719,0,0,1,1.731,8.812h-7.545c-3.375,0-6.984-2.418-10.259-5.633a113.253,113.253,0,0,1-8.243-9.664,1.4,1.4,0,0,0-2.429,1.318c.3,1.171.652,2.491.956,3.566a59.786,59.786,0,0,0,2.455,7.08c1.091,2.557,2.867,5.857,4.212,7.184a12.777,12.777,0,0,0,3.711,2.737c-2.143,1.59-3.85,2.026-7.82,3.387-2.627.9-5.916.668-9.458.232s-7.3-1.053-10.93-.465a1.4,1.4,0,0,0-.646,2.481c10.8,8.243,18.644,8.449,24.367,7.313,3.083-.612,5.443-2.234,8.295-3.8a34.015,34.015,0,0,1,11.525-4.057c10.388-1.73,17.111,3.09,26.59,7.416,10.374,4.735,23.062,15.526,23.127,15.582l.052.051a1.4,1.4,0,0,0,1.473.207,1.943,1.943,0,0,0,1.008-1.137,2.288,2.288,0,0,0,.028-1.137,6.557,6.557,0,0,0-.8-1.964,34.649,34.649,0,0,0-3.721-5.142A92.392,92.392,0,0,0,330.178,342.5c-8.143-6.212-16.625-9.214-22.171-11.266a92.8,92.8,0,0,0-10.956-18.14,1.4,1.4,0,0,0-1.24-.491Z" transform="translate(-149.064 -143.326)" fill-rule="evenodd"/>
          <g id="g7232" transform="translate(202.2 277.248)">
            <path id="path7228" d="M438.42,243.148a2.777,2.777,0,0,0-.9.185s-2.961,1.145-6.646,2.236-8.225,2.033-10.358,1.887c-7.047-.482-16.746-2.674-34.369-3.89-17.807-1.229-31.4,1.172-43.428,3.07a32.976,32.976,0,0,1-16.45-1.49A2.8,2.8,0,0,0,322.4,248.1a18.693,18.693,0,0,0,2.174,5.483c1.791,3.179,5.027,7.591,10.864,12.929,11.388,10.415,23.806,20.257,44.966,20.319,20.841.061,33.051-6.01,43.237-15.513,10.116-9.439,13.3-16.511,17.345-24.045a2.8,2.8,0,0,0-2.571-4.123Z" transform="translate(-322.378 -243.146)" fill-rule="evenodd"/>
            <path id="path7230" d="M360.209,246.908c-5.489-.064-15.106.411-22.261,4.575a17.978,17.978,0,0,0-8.02,9.789c.933,1.824,3.458,2.886,4.984,3.877a49.83,49.83,0,0,0,11.206,4.307,56.663,56.663,0,0,0,13.715,1.627,83.039,83.039,0,0,0,13.646-.991,54.144,54.144,0,0,0,10.946-2.926,45.675,45.675,0,0,0,6.816-3.535,18.366,18.366,0,0,0-3.186-7.445c-5.865-7.36-18.116-8.977-27.847-9.278Z" transform="translate(-300.69 -232.355)" fill="#fff" fill-rule="evenodd"/>
          </g>
          <g id="g7248" transform="translate(100.747)">
            <g id="g7246">
              <path id="path7240" d="M82.433-228.777c15.909,42.767,24.616,63.381,36.38,100.1q10.695-.961,21.168-1.429c.108-5.332,1.633-17.952,2.331-33.656.51-11.473.881-25.744-.376-38.689A196.219,196.219,0,0,0,82.433-228.777Zm63.7,30.643c.2,11.146-.169,23.616-.78,32.8-.969,14.576-2.468,22.992-4.108,35.159,4.111-.167,8.183-.253,12.237-.3,4.555-17.255,8.937-36.451,11.356-53.924-5.742-5.343-12.206-9.122-18.7-13.736Zm-5.575,92.142c-5.077.014-9.918.176-14.57.47,2.527,8.411,5.218,17.587,8.178,27.955a1.751,1.751,0,0,0,3.338.09s4.011-11.53,9.063-28.446C144.591-105.968,142.593-106,140.559-105.992Z" transform="translate(152.985 236.172)" fill-rule="evenodd"/>
              <path id="path7242" d="M94.353-230.684a296.247,296.247,0,0,0-38.873,3.3c18.6,46.54,54.359,89.063,80.054,115.691,7.6-2.143,15.346-4.331,23.409-6.177-14.5-51.634-16.074-61.44-16.661-109.178,0-.021-.022-.04-.022-.062a243.177,243.177,0,0,0-36.878-3.548C114.987-168.744,136.236-132,136.236-132c-8.247-7.789-30.291-35.522-40.981-98.684-.3,0-.6-.007-.9,0ZM166.145-92.346A60.794,60.794,0,0,0,159.1-88.77c3.914,3.551,6.319,5.6,6.319,5.6a1.751,1.751,0,0,0,2.81-1.813C167.447-87.746,166.877-89.756,166.145-92.346Z" transform="translate(75.566 230.687)" fill-rule="evenodd"/>
              <path id="path7244" d="M144.25,2.075a232.138,232.138,0,0,0-32.882,9.237A145.716,145.716,0,0,0,92,30.889C84.036,40.4,72.66,57.217,72.66,57.217,70.583,58.283,77.7,43.756,88.031,30.5c3.588-4.6,8.759-10.1,13.471-15.306q-5.015,2.123-9.807,4.462c-5.15,2.52-10.081,5.253-14.836,8.136-4.6,6.261-9.012,12.876-13.427,19.853C55.852,59.616,44.511,90.726,40.439,102.2c6.307.011,12.493.131,18.642.4C77.12,74.224,105.037,36.8,143.545,3.031a2.911,2.911,0,0,0,.7-.957Zm-77.6,32.38A166.188,166.188,0,0,0,31.617,67.5a206.565,206.565,0,0,0-5.6,34.873c.444-.014.913-.041,1.351-.052,3.926-.095,7.755-.13,11.542-.136,2.556-11.313,11-37.626,19.127-53.275a160.144,160.144,0,0,1,8.615-14.46ZM44.526,127.076a162.428,162.428,0,0,0-18.472,2.147c.428,5.81,1.13,11.81,2.179,18.02a2.975,2.975,0,0,0,5.653.7s3.5-7.949,10.64-20.871Z" transform="translate(-26.016 3.514)" fill-rule="evenodd"/>
            </g>
          </g>
          <path id="path7271" d="M643.339,297.6c29.106.7,68.2,8.29,100.25,15.069a197.605,197.605,0,0,1,.123,30.24c-2.3.505-13.24,3.186-16.832,14.139-3.663,11.168-2.2,15.589-11.561,48.337-4.611,16.125-13.514,32.547-28.531,44.857s-36.172,20.589-65.641,20.278c-40.02-.464-71.891-12.583-95.512-46.792-11.794-17.08-15.745-32.187-17.325-44.078-.79-5.945-.982-11.081-1.244-15.3s-.483-7.52-1.914-10.084c-4.549-8.147-11.442-11.534-20.395-11.534s-15.852,3.386-20.4,11.534c-1.354,2.424-2.129,5.964-3.042,10.624s-1.868,10.378-3.179,16.737c-2.622,12.718-6.651,27.991-14.364,42.273-16.93,30.433-54.728,46.047-95.4,46.621-29.469.311-50.624-7.969-65.641-20.278s-23.92-28.732-28.53-44.857c-9.363-32.748-7.9-37.169-11.561-48.337C239.042,346.09,228.1,343.41,225.8,342.9a198.047,198.047,0,0,1,.13-30.24c32.046-6.778,71.133-14.37,97.282-15,26.758-.644,49.475.762,77.483,4.54,27.636,3.728,55.221,17.618,84.08,17.332,28.774.276,54.431-12.384,84.046-17.332.018,0,.031,0,.048-.007a450.887,450.887,0,0,1,74.468-4.6ZM354.226,313.609c-36.409-.1-64.864,7.542-76.177,25.214h-.007v.007c-11.236,17.771-11.01,35.723-8.177,53.642,2.879,18.207,12.293,34.079,27.669,45.93,15.213,11.725,26.547,15.617,54.764,15.479,26.586-.13,52.4-8.778,66.783-24.647,26.214-28.928,27.356-66.3,12.976-87.594-14.291-21.161-41.467-27.929-77.832-28.031Zm261.061,0c-36.364.1-63.541,6.87-77.832,28.031-14.38,21.293-13.238,58.667,12.977,87.594,14.38,15.869,40.2,24.517,66.783,24.647,28.216.138,39.558-3.754,54.771-15.479,15.376-11.851,24.783-27.724,27.662-45.93,2.833-17.919,3.066-35.871-8.17-53.642v-.007h-.007c-11.313-17.672-39.775-25.317-76.184-25.215Z" transform="translate(-225.279 -186.752)" fill="#4f006e"/>
          <path id="path7336" d="M361.987,313.932a1.4,1.4,0,0,1,1.189,1.783s-1,3.263-1.99,7.08a67.725,67.725,0,0,0-1.731,8.812H367c3.375,0,6.984-2.417,10.259-5.633a113.306,113.306,0,0,0,8.243-9.664,1.4,1.4,0,0,1,2.429,1.318c-.3,1.171-.652,2.491-.956,3.566a59.773,59.773,0,0,1-2.455,7.08c-1.091,2.557-2.867,5.857-4.212,7.183a12.776,12.776,0,0,1-3.711,2.737c2.143,1.59,3.85,2.026,7.819,3.387,2.627.9,5.916.668,9.458.232s7.3-1.053,10.93-.465a1.4,1.4,0,0,1,.646,2.481c-10.8,8.243-18.644,8.449-24.367,7.313-3.083-.612-5.443-2.234-8.295-3.8a34.01,34.01,0,0,0-11.525-4.057c-10.388-1.73-17.111,3.09-26.59,7.416-10.374,4.735-23.062,15.526-23.127,15.582l-.052.052a1.4,1.4,0,0,1-1.473.207,1.942,1.942,0,0,1-1.008-1.137,2.288,2.288,0,0,1-.028-1.137,6.553,6.553,0,0,1,.8-1.964,34.667,34.667,0,0,1,3.721-5.142,92.388,92.388,0,0,1,14.109-13.333c8.143-6.212,16.625-9.214,22.171-11.266a92.792,92.792,0,0,1,10.956-18.14,1.4,1.4,0,0,1,1.24-.491Z" transform="translate(14.998 -139.511)" fill-rule="evenodd"/>
        </g>
      </g>
    </g>
  </g>
</svg>
