<?xml version="1.0" encoding="utf-8"?>
<!-- Generator: Adobe Illustrator 22.0.0, SVG Export Plug-In . SVG Version: 6.00 Build 0)  -->
<svg version="1.1"
	 id="svg1472" inkscape:version="0.92.3 (2405546, 2018-03-11)" sodipodi:docname="logo.svg" xmlns:cc="http://creativecommons.org/ns#" xmlns:dc="http://purl.org/dc/elements/1.1/" xmlns:inkscape="http://www.inkscape.org/namespaces/inkscape" xmlns:rdf="http://www.w3.org/1999/02/22-rdf-syntax-ns#" xmlns:sodipodi="http://sodipodi.sourceforge.net/DTD/sodipodi-0.dtd" xmlns:svg="http://www.w3.org/2000/svg"
	 xmlns="http://www.w3.org/2000/svg" xmlns:xlink="http://www.w3.org/1999/xlink" x="0px" y="0px" viewBox="0 0 519 320.9"
	 style="enable-background:new 0 0 519 320.9;" xml:space="preserve">
<style type="text/css">
	.st0{fill:#020202;}
	.st1{fill:#FFFFFF;}
	.st2{fill:#7C2993;}
</style>
<sodipodi:namedview  bordercolor="#666666" borderopacity="1" gridtolerance="10" guidetolerance="10" id="namedview1474" inkscape:current-layer="g7302" inkscape:cx="233.50877" inkscape:cy="111.38368" inkscape:pageopacity="0" inkscape:pageshadow="2" inkscape:window-height="837" inkscape:window-maximized="1" inkscape:window-width="1600" inkscape:window-x="-8" inkscape:window-y="-8" inkscape:zoom="1.0405406" objecttolerance="10" pagecolor="#ffffff" showgrid="false">
	</sodipodi:namedview>
<g id="logo" transform="translate(-78.319 157.606)">
	<g id="g5747" transform="translate(78.319 -157.606)">
		<g id="g7254" transform="translate(0 0)">
			<g id="g7302">
				<path id="path7224" class="st0" d="M146.7,169.3c-0.8,0.1-1.3,0.8-1.2,1.5c0,0.1,0,0.2,0,0.2c0,0,1,3.3,2,7.1
					c0.8,2.9,1.3,5.8,1.7,8.8h-7.5c-3.4,0-7-2.4-10.3-5.6c-2.9-3.1-5.7-6.3-8.2-9.7c-0.5-0.6-1.4-0.7-2-0.3c-0.5,0.4-0.7,1-0.5,1.6
					c0.3,1.2,0.7,2.5,1,3.6c0.7,2.4,1.5,4.8,2.5,7.1c1.1,2.6,2.9,5.9,4.2,7.2c1.1,1.1,2.3,2.1,3.7,2.7c-2.1,1.6-3.9,2-7.8,3.4
					c-2.6,0.9-5.9,0.7-9.5,0.2s-7.3-1.1-10.9-0.5c-0.8,0.1-1.3,0.8-1.2,1.6c0.1,0.3,0.2,0.7,0.5,0.9c10.8,8.2,18.6,8.4,24.4,7.3
					c3.1-0.6,5.4-2.2,8.3-3.8c3.6-2,7.5-3.4,11.5-4.1c10.4-1.7,17.1,3.1,26.6,7.4c10.4,4.7,23.1,15.5,23.1,15.6l0.1,0.1
					c0.4,0.3,1,0.4,1.5,0.2c0.5-0.2,0.8-0.6,1-1.1c0.1-0.4,0.1-0.8,0-1.1c-0.2-0.7-0.4-1.4-0.8-2c-1.1-1.8-2.3-3.5-3.7-5.1
					c-4.2-4.9-9-9.4-14.1-13.3c-8.1-6.2-16.6-9.2-22.2-11.3c-2.9-6.4-6.6-12.5-11-18.1C147.7,169.4,147.2,169.2,146.7,169.3
					L146.7,169.3z"/>
				<g id="g7232" transform="translate(202.2 277.248)">
					<path id="path7228" class="st0" d="M116,0c-0.3,0-0.6,0.1-0.9,0.2c0,0-3,1.1-6.6,2.2s-8.2,2-10.4,1.9c-7-0.5-16.7-2.7-34.4-3.9
						C46-0.8,32.4,1.6,20.3,3.5C14.8,4.4,9.2,3.9,3.9,2C2.5,1.4,0.8,2.1,0.2,3.5C0,3.9,0,4.5,0,5c0.4,1.9,1.2,3.8,2.2,5.5
						c1.8,3.2,5,7.6,10.9,12.9c11.4,10.4,23.8,20.3,45,20.3c20.8,0.1,33.1-6,43.2-15.5c10.1-9.4,13.3-16.5,17.3-24
						c0.7-1.4,0.2-3.1-1.1-3.8C117,0.1,116.5,0,116,0L116,0z"/>
					<path id="path7230" class="st1" d="M59.5,14.6C54,14.5,44.4,15,37.3,19.1c-3.8,2.2-6.6,5.7-8,9.8c0.9,1.8,3.5,2.9,5,3.9
						c3.5,1.9,7.3,3.3,11.2,4.3c4.5,1.1,9.1,1.6,13.7,1.6c4.6,0,9.1-0.3,13.6-1c3.7-0.6,7.4-1.6,10.9-2.9c2.4-1,4.6-2.2,6.8-3.5
						c-0.5-2.7-1.6-5.2-3.2-7.4C81.5,16.5,69.2,14.9,59.5,14.6L59.5,14.6z"/>
				</g>
				<g id="g7248" transform="translate(100.747)">
					<g id="g7246">
						<path id="path7240" class="st0" d="M235.4,7.4c15.9,42.8,24.6,63.4,36.4,100.1c7.1-0.6,14.2-1.1,21.2-1.4
							c0.1-5.3,1.6-18,2.3-33.7c0.5-11.5,0.9-25.7-0.4-38.7C276.7,21.7,256.6,12.8,235.4,7.4z M299.1,38c0.2,11.1-0.2,23.6-0.8,32.8
							c-1,14.6-2.5,23-4.1,35.2c4.1-0.2,8.2-0.3,12.2-0.3c4.6-17.3,8.9-36.5,11.4-53.9C312.1,46.4,305.6,42.7,299.1,38L299.1,38z
							 M293.5,130.2c-5.1,0-9.9,0.2-14.6,0.5c2.5,8.4,5.2,17.6,8.2,28c0.3,0.9,1.2,1.5,2.2,1.2c0.5-0.2,1-0.6,1.2-1.1
							c0,0,4-11.5,9.1-28.4C297.6,130.2,295.6,130.2,293.5,130.2L293.5,130.2z"/>
						<path id="path7242" class="st0" d="M169.9,0c-13,0.2-26,1.3-38.9,3.3c18.6,46.5,54.4,89.1,80.1,115.7
							c7.6-2.1,15.3-4.3,23.4-6.2C220,61.2,218.4,51.4,217.8,3.6c0,0,0,0,0-0.1c-12.2-2.1-24.5-3.3-36.9-3.5
							c9.6,61.9,30.9,98.7,30.9,98.7c-8.2-7.8-30.3-35.5-41-98.7C170.5,0,170.2,0,169.9,0L169.9,0z M241.7,138.3
							c-2.4,1-4.8,2.2-7,3.6c3.9,3.6,6.3,5.6,6.3,5.6c0.7,0.6,1.8,0.5,2.5-0.2c0.4-0.4,0.5-1,0.3-1.6
							C243,142.9,242.4,140.9,241.7,138.3z"/>
						<path id="path7244" class="st0" d="M118.2,5.6c-11.2,2.3-22.2,5.4-32.9,9.2C78.3,20.7,71.8,27.3,66,34.4
							c-8,9.5-19.3,26.3-19.3,26.3c-2.1,1.1,5-13.5,15.4-26.7c3.6-4.6,8.8-10.1,13.5-15.3c-3.3,1.4-6.6,2.9-9.8,4.5
							c-5.2,2.5-10.1,5.3-14.8,8.1c-4.6,6.3-9,12.9-13.4,19.9c-7.6,12-18.9,43.1-23,54.6c6.3,0,12.5,0.1,18.6,0.4
							c18-28.4,46-65.8,84.5-99.6C117.8,6.3,118.1,6,118.2,5.6L118.2,5.6z M40.6,38c-13.2,9.3-25,20.4-35,33
							C2.7,82.5,0.9,94.1,0,105.9c0.4,0,0.9,0,1.4-0.1c3.9-0.1,7.8-0.1,11.5-0.1c2.6-11.3,11-37.6,19.1-53.3
							C34.6,47.5,37.5,42.6,40.6,38L40.6,38z M18.5,130.6c-6.2,0.4-12.4,1.1-18.5,2.1c0.4,5.8,1.1,11.8,2.2,18
							c0.3,1.6,1.8,2.7,3.4,2.4c1-0.2,1.8-0.8,2.2-1.7C7.9,151.5,11.4,143.5,18.5,130.6L18.5,130.6z"/>
					</g>
				</g>
				<path id="path7271" class="st2" d="M418.1,110.8c29.1,0.7,68.2,8.3,100.3,15.1c0.8,10.1,0.9,20.2,0.1,30.2
					c-2.3,0.5-13.2,3.2-16.8,14.1c-3.7,11.2-2.2,15.6-11.6,48.3c-4.6,16.1-13.5,32.5-28.5,44.9c-15,12.3-36.2,20.6-65.6,20.3
					c-40-0.5-71.9-12.6-95.5-46.8c-11.8-17.1-15.7-32.2-17.3-44.1c-0.8-5.9-1-11.1-1.2-15.3c-0.3-4.2-0.5-7.5-1.9-10.1
					c-4.5-8.1-11.4-11.5-20.4-11.5c-9,0-15.9,3.4-20.4,11.5c-1.4,2.4-2.1,6-3,10.6s-1.9,10.4-3.2,16.7c-2.6,12.7-6.7,28-14.4,42.3
					c-16.9,30.4-54.7,46-95.4,46.6c-29.5,0.3-50.6-8-65.6-20.3c-15-12.3-23.9-28.7-28.5-44.9c-9.4-32.7-7.9-37.2-11.6-48.3
					c-3.6-11-14.5-13.6-16.8-14.1c-0.7-10.1-0.7-20.2,0.1-30.2c32-6.8,71.1-14.4,97.3-15c26.8-0.6,49.5,0.8,77.5,4.5
					c27.6,3.7,55.2,17.6,84.1,17.3c28.8,0.3,54.4-12.4,84-17.3c0,0,0,0,0,0C368.2,111.9,393.2,110.3,418.1,110.8L418.1,110.8z
					 M128.9,126.9c-36.4-0.1-64.9,7.5-76.2,25.2h0v0c-11.2,17.8-11,35.7-8.2,53.6c2.9,18.2,12.3,34.1,27.7,45.9
					c15.2,11.7,26.5,15.6,54.8,15.5c26.6-0.1,52.4-8.8,66.8-24.6c26.2-28.9,27.4-66.3,13-87.6C192.5,133.7,165.3,127,128.9,126.9
					L128.9,126.9z M390,126.9c-36.4,0.1-63.5,6.9-77.8,28c-14.4,21.3-13.2,58.7,13,87.6c14.4,15.9,40.2,24.5,66.8,24.6
					c28.2,0.1,39.6-3.8,54.8-15.5c15.4-11.9,24.8-27.7,27.7-45.9c2.8-17.9,3.1-35.9-8.2-53.6v0h0C454.9,134.4,426.4,126.8,390,126.9
					L390,126.9z"/>
				<path id="path7336" class="st0" d="M377,174.4c0.8,0.1,1.3,0.8,1.2,1.5c0,0.1,0,0.2,0,0.2c0,0-1,3.3-2,7.1
					c-0.8,2.9-1.3,5.8-1.7,8.8h7.5c3.4,0,7-2.4,10.3-5.6c2.9-3.1,5.7-6.3,8.2-9.7c0.5-0.6,1.4-0.7,2-0.3c0.5,0.4,0.7,1,0.5,1.6
					c-0.3,1.2-0.7,2.5-1,3.6c-0.7,2.4-1.5,4.8-2.5,7.1c-1.1,2.6-2.9,5.9-4.2,7.2c-1.1,1.1-2.3,2.1-3.7,2.7c2.1,1.6,3.9,2,7.8,3.4
					c2.6,0.9,5.9,0.7,9.5,0.2s7.3-1.1,10.9-0.5c0.8,0.1,1.3,0.8,1.2,1.6c-0.1,0.3-0.2,0.7-0.5,0.9c-10.8,8.2-18.6,8.4-24.4,7.3
					c-3.1-0.6-5.4-2.2-8.3-3.8c-3.6-2-7.5-3.4-11.5-4.1c-10.4-1.7-17.1,3.1-26.6,7.4c-10.4,4.7-23.1,15.5-23.1,15.6l-0.1,0.1
					c-0.4,0.3-1,0.4-1.5,0.2c-0.5-0.2-0.8-0.6-1-1.1c-0.1-0.4-0.1-0.8,0-1.1c0.2-0.7,0.4-1.4,0.8-2c1.1-1.8,2.3-3.5,3.7-5.1
					c4.2-4.9,9-9.4,14.1-13.3c8.1-6.2,16.6-9.2,22.2-11.3c2.9-6.4,6.6-12.5,11-18.1C376,174.5,376.5,174.4,377,174.4L377,174.4z"/>
			</g>
		</g>
	</g>
</g>
</svg>
